<svg xmlns="http://www.w3.org/2000/svg" viewBox="0 0 1181.87 674.96"><defs><style>.cls-1{fill:#c1c1c1;}</style></defs><g id="Layer_2" data-name="Layer 2"><g id="Layer_1-2" data-name="Layer 1"><path class="cls-1" d="M454,239.46A30.5,30.5,0,0,0,405.34,215a30.5,30.5,0,0,0-57,10.29,30.5,30.5,0,1,0,15.59,47.52A30.5,30.5,0,0,0,423.67,270,30.49,30.49,0,0,0,454,239.46Z"/><path class="cls-1" d="M459.39,594a43.71,43.71,0,0,0-69.73-35.12,43.71,43.71,0,0,0-81.74,14.76,43.71,43.71,0,1,0,22.34,68.09,43.71,43.71,0,0,0,85.67-4A43.71,43.71,0,0,0,459.39,594Z"/><path class="cls-1" d="M863.39,411a43.71,43.71,0,0,0-69.73-35.12,43.71,43.71,0,0,0-81.74,14.76,43.71,43.71,0,1,0,22.34,68.09,43.71,43.71,0,0,0,85.67-4A43.71,43.71,0,0,0,863.39,411Z"/><path class="cls-1" d="M127.72,527A30.49,30.49,0,0,0,77.45,494.4a30.49,30.49,0,0,0-50.27,19.74,30.5,30.5,0,1,0,8.25,60.42,30.5,30.5,0,0,0,59.28,3.67,30.5,30.5,0,1,0,33-51.2Z"/><path class="cls-1" d="M1164.65,595.52A30.49,30.49,0,0,0,1149,537.66a30.49,30.49,0,0,0-50.6-18.87,30.5,30.5,0,0,0-38.14,47.48,30.06,30.06,0,0,0,3.94,3,30.5,30.5,0,0,0,41.67,42.33,30.5,30.5,0,1,0,58.76-16.07Z"/><path class="cls-1" d="M679.49,51.44A30.5,30.5,0,0,0,635.24,11a30.49,30.49,0,0,0-52.82,11.25,30.5,30.5,0,0,0-6.69,60.54,31.94,31.94,0,0,0,4.93.41,30.51,30.51,0,0,0,57.89,13.33,30.5,30.5,0,1,0,40.94-45.11Z"/></g></g></svg>