<svg id="Layer_1" data-name="Layer 1" xmlns="http://www.w3.org/2000/svg" xmlns:xlink="http://www.w3.org/1999/xlink" viewBox="0 0 1332.75 1330.97"><defs><style>.cls-1{fill:#c1c1c1;}.cls-2{fill:url(#linear-gradient);}.cls-3{fill:none;stroke:#d6b2a5;stroke-miterlimit:10;stroke-width:3.19px;}.cls-4{fill:#ffdd91;}.cls-5{fill:#ffdd4d;}.cls-6{fill:#282e54;}</style><linearGradient id="linear-gradient" x1="118.72" y1="683" x2="1451.47" y2="683" gradientUnits="userSpaceOnUse"><stop offset="0" stop-color="#d6b2a5"/><stop offset="0.24" stop-color="#bfa3a0"/><stop offset="0.73" stop-color="#847c94"/><stop offset="0.83" stop-color="#787492"/></linearGradient></defs><path class="cls-1" d="M598.12,289.72a30.5,30.5,0,0,0-48.67-24.5,30.5,30.5,0,0,0-57,10.29A30.5,30.5,0,1,0,508,323a30.5,30.5,0,0,0,59.78-2.82A30.5,30.5,0,0,0,598.12,289.72Z" transform="translate(-118.72 -17.51)"/><path class="cls-1" d="M603.51,644.26a43.71,43.71,0,0,0-69.74-35.11A43.71,43.71,0,0,0,452,623.9,43.71,43.71,0,1,0,474.38,692,43.71,43.71,0,0,0,560,688,43.71,43.71,0,0,0,603.51,644.26Z" transform="translate(-118.72 -17.51)"/><path class="cls-1" d="M1007.51,461.26a43.71,43.71,0,0,0-69.74-35.11A43.71,43.71,0,0,0,856,440.9,43.71,43.71,0,1,0,878.38,509,43.71,43.71,0,0,0,964,505,43.71,43.71,0,0,0,1007.51,461.26Z" transform="translate(-118.72 -17.51)"/><path class="cls-1" d="M271.84,577.29a30.49,30.49,0,0,0-50.27-32.63A30.49,30.49,0,0,0,171.3,564.4a30.5,30.5,0,0,0,3.32,60.82,30.84,30.84,0,0,0,4.93-.4,30.5,30.5,0,0,0,59.28,3.67,30.5,30.5,0,1,0,33-51.2Z" transform="translate(-118.72 -17.51)"/><path class="cls-1" d="M1308.76,645.78a30.49,30.49,0,0,0-15.62-57.86,30.49,30.49,0,0,0-50.6-18.87,30.5,30.5,0,0,0-38.15,47.48,31.05,31.05,0,0,0,3.94,3A30.5,30.5,0,0,0,1250,661.85a30.49,30.49,0,1,0,58.75-16.07Z" transform="translate(-118.72 -17.51)"/><path class="cls-1" d="M823.6,101.71a30.5,30.5,0,0,0-44.25-40.43,30.49,30.49,0,0,0-52.82,11.25,30.5,30.5,0,0,0-6.68,60.54,29.55,29.55,0,0,0,4.93.41,30.5,30.5,0,0,0,57.88,13.33,30.49,30.49,0,1,0,40.94-45.1Z" transform="translate(-118.72 -17.51)"/><path class="cls-2" d="M1451.46,683c0-.3,0-.59,0-.89h0c-1-367.21-298.92-664.6-666.36-664.6S119.69,314.9,118.73,682.11h0v1.78h0c1,367.21,298.93,664.6,666.36,664.6s665.4-297.39,666.36-664.6h0C1451.47,683.59,1451.46,683.3,1451.46,683Z" transform="translate(-118.72 -17.51)"/><line class="cls-3" x1="134.09" y1="536.53" x2="350.6" y2="584.37"/><line class="cls-3" x1="132.44" y1="575" x2="352.25" y2="545.9"/><line class="cls-3" x1="144.04" y1="611.71" x2="340.64" y2="509.19"/><line class="cls-3" x1="167.5" y1="642.24" x2="317.18" y2="478.66"/><line class="cls-3" x1="199.99" y1="662.91" x2="284.69" y2="457.99"/><line class="cls-3" x1="237.59" y1="671.22" x2="247.1" y2="449.69"/><line class="cls-3" x1="275.76" y1="666.16" x2="208.93" y2="454.74"/><line class="cls-3" x1="309.9" y1="648.36" x2="174.79" y2="472.54"/><line class="cls-3" x1="335.89" y1="619.95" x2="148.8" y2="500.95"/><circle class="cls-4" cx="242.34" cy="560.45" r="76.5"/><polygon class="cls-5" points="731.09 538.33 723.58 526.45 709.54 525.91 718.51 515.1 714.68 501.58 727.74 506.77 739.41 498.95 738.51 512.98 749.55 521.66 735.94 525.14 731.09 538.33"/><path class="cls-6" d="M1288.34,771.47a76.3,76.3,0,0,0-.25-25.87,76.51,76.51,0,0,1-142.42-23,76.51,76.51,0,1,0,142.67,48.87Z" transform="translate(-118.72 -17.51)"/><polygon class="cls-5" points="1239.04 828.4 1240.73 816.11 1231.56 807.76 1243.77 805.57 1248.88 794.27 1254.74 805.2 1267.06 806.56 1258.48 815.51 1260.98 827.66 1249.82 822.26 1239.04 828.4"/><polygon class="cls-5" points="1103.08 413.31 1107.04 401.56 1099.61 391.63 1112.01 391.78 1119.16 381.64 1122.86 393.48 1134.7 397.14 1124.59 404.32 1124.76 416.72 1114.82 409.31 1103.08 413.31"/><polygon class="cls-5" points="940.24 673.5 928.01 654.18 905.16 653.3 919.75 635.7 913.53 613.7 934.78 622.14 953.79 609.42 952.32 632.24 970.29 646.38 948.13 652.04 940.24 673.5"/><polygon class="cls-5" points="842.96 1202.85 863.11 1208.96 879.57 1195.83 879.98 1216.89 897.55 1228.48 877.66 1235.38 872.06 1255.67 859.35 1238.89 838.32 1239.83 850.36 1222.56 842.96 1202.85"/><polygon class="cls-5" points="1257.87 553.56 1262.25 541.95 1255.16 531.77 1267.55 532.34 1275.05 522.46 1278.33 534.42 1290.04 538.5 1279.68 545.31 1279.43 557.71 1269.74 549.97 1257.87 553.56"/><polygon class="cls-5" points="934.83 253.13 902.48 247.36 879.75 271.09 874.83 238.13 845.34 223.27 874.64 208.68 879.14 175.76 902.18 199.7 934.45 194.22 919.39 223.61 934.83 253.13"/><polygon class="cls-5" points="1061.81 1040.03 1049.38 1031.54 1035.34 1036.95 1039.58 1022.51 1030.09 1010.83 1045.14 1010.4 1053.32 997.77 1058.37 1011.94 1072.91 1015.82 1060.99 1025.01 1061.81 1040.03"/><polygon class="cls-5" points="823.46 880.92 801.46 880.8 788.89 898.86 782.2 877.9 761.15 871.53 779.01 858.7 778.56 836.7 796.29 849.73 817.07 842.5 810.17 863.39 823.46 880.92"/></svg>